#N canvas 437 40 856 710 10;
#X msg 32 167 open 1;
#X obj 159 228 arduino 1;
#X msg 99 156 devices;
#X obj 154 255 route analog;
#N canvas 930 419 661 488 display 0;
#X obj 16 17 inlet;
#X obj 16 38 mapping/resample 100;
#X obj 16 60 outlet;
#X obj 64 60 inlet;
#X obj 64 81 mapping/resample 100;
#X obj 64 103 outlet;
#X obj 113 103 inlet;
#X obj 113 124 mapping/resample 100;
#X obj 113 146 outlet;
#X obj 161 146 inlet;
#X obj 161 167 mapping/resample 100;
#X obj 161 189 outlet;
#X obj 210 189 inlet;
#X obj 210 210 mapping/resample 100;
#X obj 210 232 outlet;
#X obj 257 232 inlet;
#X obj 257 253 mapping/resample 100;
#X obj 257 275 outlet;
#X obj 305 275 inlet;
#X obj 305 296 mapping/resample 100;
#X obj 305 318 outlet;
#X obj 355 318 inlet;
#X obj 355 339 mapping/resample 100;
#X obj 355 361 outlet;
#X obj 70 300 receive ARDUINO_TEST_RESET;
#X connect 0 0 1 0;
#X connect 1 0 2 0;
#X connect 3 0 4 0;
#X connect 4 0 5 0;
#X connect 6 0 7 0;
#X connect 7 0 8 0;
#X connect 9 0 10 0;
#X connect 10 0 11 0;
#X connect 12 0 13 0;
#X connect 13 0 14 0;
#X connect 15 0 16 0;
#X connect 16 0 17 0;
#X connect 18 0 19 0;
#X connect 19 0 20 0;
#X connect 21 0 22 0;
#X connect 22 0 23 0;
#X connect 24 0 22 0;
#X connect 24 0 19 0;
#X connect 24 0 16 0;
#X connect 24 0 13 0;
#X connect 24 0 10 0;
#X connect 24 0 7 0;
#X connect 24 0 4 0;
#X connect 24 0 1 0;
#X restore 131 365 pd display values without pegging the cpu;
#X floatatom 119 398 5 0 0 0 - - -;
#X obj 198 113 bng 15 250 50 0 empty empty empty 17 7 0 10 -262144
-1 -1;
#X msg 316 109 pinMode 14 analog;
#X msg 324 129 pinMode 15 analog;
#X msg 334 146 pinMode 16 analog;
#X msg 347 166 pinMode 17 analog;
#X msg 359 184 pinMode 18 analog;
#X msg 369 204 pinMode 19 analog;
#X floatatom 160 401 5 0 0 0 - - -;
#X floatatom 197 401 5 0 0 0 - - -;
#X floatatom 239 402 5 0 0 0 - - -;
#X floatatom 279 404 5 0 0 0 - - -;
#X floatatom 318 404 5 0 0 0 - - -;
#X obj 212 499 map 0.66 0.93;
#X obj 163 293 route 0 1 2 3 4 5;
#X obj 75 556 s ard0;
#X obj 122 558 s ard1;
#X obj 322 563 s ard5;
#X obj 93 421 map 0.66 0.93;
#X obj 130 445 map 0.66 0.93;
#X obj 254 519 map 0.66 0.93;
#X obj 176 561 s ard2;
#X obj 219 558 s ard3;
#X obj 268 559 s ard4;
#X obj 300 537 map 0.66 0.93;
#X obj 166 467 map 0.66 0.93;
#X connect 0 0 1 0;
#X connect 1 0 3 0;
#X connect 2 0 1 0;
#X connect 3 0 19 0;
#X connect 4 0 5 0;
#X connect 4 1 13 0;
#X connect 4 2 14 0;
#X connect 4 3 15 0;
#X connect 4 4 16 0;
#X connect 4 5 17 0;
#X connect 5 0 23 0;
#X connect 6 0 7 0;
#X connect 6 0 8 0;
#X connect 6 0 9 0;
#X connect 6 0 10 0;
#X connect 6 0 11 0;
#X connect 6 0 12 0;
#X connect 7 0 1 0;
#X connect 8 0 1 0;
#X connect 9 0 1 0;
#X connect 10 0 1 0;
#X connect 11 0 1 0;
#X connect 12 0 1 0;
#X connect 13 0 24 0;
#X connect 14 0 30 0;
#X connect 15 0 18 0;
#X connect 16 0 25 0;
#X connect 17 0 29 0;
#X connect 18 0 27 0;
#X connect 19 0 4 0;
#X connect 19 1 4 1;
#X connect 19 2 4 2;
#X connect 19 3 4 3;
#X connect 19 4 4 4;
#X connect 19 5 4 5;
#X connect 23 0 20 0;
#X connect 24 0 21 0;
#X connect 25 0 28 0;
#X connect 29 0 22 0;
#X connect 30 0 26 0;
