#N canvas 175 158 763 575 10;
#X obj 115 427 outlet;
#X obj 225 28 r w1;
#X obj 276 33 r w2;
#X obj 338 43 r w3;
#X obj 411 34 r w4;
#X obj 463 43 r w5;
#X obj 30 27 inlet;
#X msg 58 63 0;
#X obj 141 323 pow 0.5;
#X text 188 435 output 'twanginess' : bounded by 1 \, sqrt2;
#X obj 127 262 expr $f1 + $f2 + $f3 + $f4 + $f5 + $f6;
#X text 542 95 it's already all weighted \, so this finds the mean
;
#X obj 94 151 expr $f1 * ($f2 - 20);
#X obj 154 175 expr $f1 * ($f2 - 35);
#X obj 221 195 expr $f1 * ($f2 - 45);
#X obj 321 212 expr $f1 * ($f2 - 60);
#X obj 433 239 expr $f1 * ($f2 - 80);
#X obj 155 86 expr $f1 + $f2 * 20 + $f3 * 35 + $f4 * 45 + $f5 * 60
+ $f6 * 80;
#X msg 54 156 0;
#X obj 608 159 print;
#X obj 223 319 print;
#X floatatom 473 301 5 0 0 0 - - -;
#X connect 1 0 17 1;
#X connect 1 0 12 1;
#X connect 2 0 17 2;
#X connect 2 0 13 1;
#X connect 3 0 17 3;
#X connect 3 0 14 1;
#X connect 4 0 17 4;
#X connect 4 0 15 1;
#X connect 5 0 17 5;
#X connect 5 0 16 1;
#X connect 6 0 7 0;
#X connect 7 0 17 0;
#X connect 8 0 0 0;
#X connect 10 0 8 0;
#X connect 10 0 20 0;
#X connect 12 0 10 1;
#X connect 13 0 10 2;
#X connect 14 0 10 3;
#X connect 15 0 10 4;
#X connect 16 0 10 5;
#X connect 16 0 21 0;
#X connect 17 0 13 1;
#X connect 17 0 18 0;
#X connect 17 0 19 0;
#X connect 17 0 16 0;
#X connect 17 0 12 0;
#X connect 17 0 13 0;
#X connect 17 0 14 0;
#X connect 17 0 15 0;
#X connect 18 0 10 0;
