#N canvas 1252 40 576 815 12;
#X obj 131 169 bng 15 250 50 0 empty empty empty 0 -6 0 8 -262144 -1
-1;
#X floatatom 203 205 5 0 0 0 - - -;
#X obj 164 239 del;
#X msg 131 265 1;
#X msg 164 265 0;
#X text 113 140 start;
#X obj 43 269 noise~;
#X obj 44 338 *~;
#X obj 103 476 *~ 0.99;
#X floatatom 175 457 5 0 0 0 - - -;
#X obj 224 339 *~ 0.5;
#X obj 311 328 z~ 1;
#X obj 312 355 *~ 0.5;
#X obj 225 392 +~;
#X obj 203 174 expr 44100/($f1*1.09545)*0.025;
#X text 262 139 Frequency (Hz.);
#X text 367 325 Delay by 1 Sample;
#X text 369 370 calculates average;
#X text 219 451 damping factor (between 0 and 1);
#X text 376 613 www.pd-tutorial.com;
#X text 381 586 Johannes Kreidler;
#X text 293 536 3.4.2.10. Karplus Strong 3;
#X obj 104 17 inlet;
#X obj 190 103 mtof;
#X obj 456 132 sel 0;
#X obj 212 596 *~;
#X obj 170 535 midtermwahwah;
#X obj 193 499 r f1;
#X obj 247 498 r f2;
#X obj 178 755 outlet~;
#X obj 208 638 *~;
#X obj 307 657 / 127;
#X obj 104 56 unpack 0 0;
#X obj 405 264 t f f;
#X obj 428 168 bng 15 250 50 0 empty empty empty 17 7 0 10 -262144
-1 -1;
#X obj 240 669 line~;
#X obj 189 706 *~;
#X msg 286 708 1;
#X obj 79 664 pack 0 0;
#X msg 78 639 0;
#X obj 125 636 r r;
#X obj 217 33 inlet;
#X obj 250 583 r kpvol;
#X obj 225 296 vd~ buffer3 100;
#X obj -2 530 delwrite~ buffer3 1000;
#X connect 0 0 2 0;
#X connect 0 0 3 0;
#X connect 1 0 2 1;
#X connect 1 0 43 0;
#X connect 2 0 4 0;
#X connect 3 0 7 1;
#X connect 4 0 7 1;
#X connect 6 0 7 0;
#X connect 7 0 44 0;
#X connect 8 0 26 0;
#X connect 8 0 44 0;
#X connect 9 0 8 1;
#X connect 10 0 13 0;
#X connect 11 0 12 0;
#X connect 12 0 13 1;
#X connect 13 0 8 0;
#X connect 14 0 1 0;
#X connect 22 0 32 0;
#X connect 23 0 14 0;
#X connect 24 0 34 0;
#X connect 24 1 33 0;
#X connect 25 0 30 0;
#X connect 26 0 25 0;
#X connect 27 0 26 1;
#X connect 28 0 26 2;
#X connect 30 0 36 0;
#X connect 31 0 30 1;
#X connect 31 0 37 0;
#X connect 32 0 23 0;
#X connect 32 1 24 0;
#X connect 33 0 0 0;
#X connect 33 1 31 0;
#X connect 34 0 39 0;
#X connect 35 0 36 1;
#X connect 36 0 29 0;
#X connect 37 0 35 0;
#X connect 38 0 35 0;
#X connect 39 0 38 0;
#X connect 40 0 38 1;
#X connect 41 0 9 0;
#X connect 42 0 25 1;
#X connect 43 0 10 0;
#X connect 43 0 11 0;
