#N canvas 2074 23 996 743 10;
#X obj 190 563 r f1;
#X obj 230 562 r f2;
#X obj 157 589 midtermwahwah;
#X obj 75 90 expr 44100 / $f1;
#X floatatom 75 250 5 0 0 0 - - -;
#X obj 75 298 phasor~;
#X obj 132 247 *~;
#X obj 130 301 hip~ 5;
#X obj 75 271 *;
#X obj 32 202 +~;
#X obj 208 120 -;
#X floatatom 208 86 5 0 0 0 - - -;
#X obj 276 82 t f b;
#X obj 31 282 *~;
#X obj 83 114 expr 1 / $f1;
#X obj 79 143 *;
#X obj 86 181 t b f;
#X obj 32 165 *~;
#X obj 177 202 bng 15 250 50 0 empty empty empty 17 7 0 10 -262144
-1 -1;
#X msg 178 234 1;
#X msg 153 57 132300;
#X obj 292 38 bng 15 250 50 0 empty empty empty 17 7 0 10 -262144 -1
-1;
#X obj 269 5 inlet;
#X obj 119 696 outlet~;
#X obj 375 26 unpack 0 0;
#X obj 744 57 sel 0;
#X obj 935 609 / 127;
#X obj 373 133 mtof;
#X obj 211 203 *;
#X obj 189 319 bng 15 250 50 0 empty empty empty 17 7 0 10 -262144
-1 -1;
#X obj 945 549 adsr;
#X obj 159 626 *~;
#X obj 156 656 *~;
#X obj 162 168 tabread4~ sample;
#X obj 288 312 / 261;
#X obj 547 361 osc~;
#X obj 648 387 osc~;
#X floatatom 579 280 5 0 0 0 - - -;
#X obj 509 323 * 1;
#X obj 515 499 *~;
#X obj 555 483 *~;
#X obj 640 495 *~;
#X obj 603 497 *~;
#X obj 733 492 *~;
#X obj 676 452 r w4;
#X obj 612 466 r w3;
#X obj 565 449 r w2;
#X obj 524 459 r w1;
#X obj 193 507 +~;
#X obj 416 312 *;
#X obj 292 149 r end;
#X obj 286 126 r start;
#X obj 377 196 bng 15 250 50 0 empty empty empty 17 7 0 10 -262144
-1 -1;
#X obj 570 536 +~;
#X obj 345 471 *~;
#X obj 448 471 r f4;
#X obj 421 403 * 4;
#X obj 590 319 * 2;
#X obj 550 320 * 1.5;
#X obj 634 327 * 3;
#X obj 247 453 *~;
#X obj 299 403 r f5;
#X obj 236 397 * 0.5;
#X obj 692 322 * 4;
#X obj 787 450 r w5;
#X obj 392 442 domosc;
#X obj 393 495 * 0.8;
#X obj 719 418 sawtoothmid;
#X obj 591 405 squaremid;
#X obj 491 408 trianglemid;
#X obj 240 423 domosc;
#X obj 297 434 * 0.3;
#X obj 493 543 *~ 0.8;
#X text 595 249 oscillators;
#X text 408 361 finger 4 (high harmonic);
#X text 221 348 finger 5 (low harmonic);
#X obj 482 248 r vibrato;
#X obj 283 184 r vibrato;
#X text 108 23 sampler;
#X obj 281 237 *;
#X obj 304 207 r sampletune;
#X floatatom 335 235 5 0 0 0 - - -;
#X obj 136 536 +~;
#X obj 155 502 *~;
#X obj 111 493 *~;
#X obj 182 440 r oscvol;
#X obj 61 449 r sampvol;
#X connect 0 0 2 1;
#X connect 1 0 2 2;
#X connect 2 0 31 0;
#X connect 3 0 15 1;
#X connect 4 0 8 0;
#X connect 5 0 17 0;
#X connect 6 0 7 0;
#X connect 7 0 84 0;
#X connect 8 0 5 0;
#X connect 9 0 13 0;
#X connect 10 0 14 0;
#X connect 10 0 17 1;
#X connect 11 0 10 0;
#X connect 12 0 10 1;
#X connect 12 0 9 1;
#X connect 12 1 11 0;
#X connect 13 0 33 0;
#X connect 14 0 15 0;
#X connect 15 0 4 0;
#X connect 16 0 4 0;
#X connect 16 1 8 1;
#X connect 17 0 9 0;
#X connect 18 0 19 0;
#X connect 19 0 6 1;
#X connect 20 0 3 0;
#X connect 20 0 13 1;
#X connect 21 0 18 0;
#X connect 21 0 20 0;
#X connect 22 0 21 0;
#X connect 22 0 24 0;
#X connect 24 0 27 0;
#X connect 24 1 25 0;
#X connect 24 1 30 0;
#X connect 25 1 26 0;
#X connect 26 0 32 1;
#X connect 27 0 34 0;
#X connect 27 0 49 1;
#X connect 27 0 52 0;
#X connect 28 0 16 0;
#X connect 29 0 28 0;
#X connect 30 0 31 1;
#X connect 31 0 32 0;
#X connect 32 0 23 0;
#X connect 33 0 6 0;
#X connect 34 0 28 1;
#X connect 34 0 29 0;
#X connect 35 0 40 0;
#X connect 36 0 41 0;
#X connect 37 0 38 0;
#X connect 37 0 57 0;
#X connect 37 0 58 0;
#X connect 37 0 59 0;
#X connect 37 0 63 0;
#X connect 38 0 69 0;
#X connect 39 0 53 0;
#X connect 40 0 53 0;
#X connect 41 0 53 0;
#X connect 42 0 53 0;
#X connect 43 0 53 0;
#X connect 44 0 41 1;
#X connect 45 0 42 1;
#X connect 46 0 40 1;
#X connect 47 0 39 1;
#X connect 48 0 83 0;
#X connect 49 0 37 0;
#X connect 49 0 56 0;
#X connect 49 0 62 0;
#X connect 50 0 11 0;
#X connect 51 0 12 0;
#X connect 52 0 49 0;
#X connect 53 0 72 0;
#X connect 54 0 48 0;
#X connect 55 0 66 0;
#X connect 56 0 65 0;
#X connect 57 0 68 0;
#X connect 58 0 35 0;
#X connect 59 0 36 0;
#X connect 60 0 48 0;
#X connect 61 0 71 0;
#X connect 62 0 70 0;
#X connect 63 0 67 0;
#X connect 64 0 43 1;
#X connect 65 0 54 0;
#X connect 66 0 54 1;
#X connect 67 0 43 0;
#X connect 68 0 42 0;
#X connect 69 0 39 0;
#X connect 70 0 60 0;
#X connect 71 0 60 1;
#X connect 72 0 48 0;
#X connect 76 0 49 0;
#X connect 77 0 79 0;
#X connect 79 0 28 0;
#X connect 80 0 79 1;
#X connect 80 0 81 0;
#X connect 82 0 2 0;
#X connect 83 0 82 0;
#X connect 84 0 82 0;
#X connect 85 0 83 1;
#X connect 86 0 84 1;
