#N canvas 805 62 450 300 10;
#X obj 239 40 inlet;
#X text 39 32 signal;
#X obj 47 54 inlet~;
#X obj 68 169 vcf~;
#X obj 134 73 *~ 1500;
#X obj 130 102 +~ 100;
#X obj 79 215 outlet~;
#X obj 204 89 t b;
#X obj 334 51 inlet;
#X obj 238 139 * 6;
#X obj 172 176 + 1;
#X connect 0 0 4 0;
#X connect 0 0 7 0;
#X connect 2 0 3 0;
#X connect 3 0 6 0;
#X connect 4 0 5 0;
#X connect 5 0 3 1;
#X connect 8 0 9 0;
#X connect 9 0 10 0;
#X connect 10 0 3 2;
