#N canvas 0 22 1280 699 10;
#X obj 573 83 bng 15 250 50 0 empty empty empty 17 7 0 10 -262144 -1
-1;
#X floatatom 721 220 5 0 0 0 - - -;
#X msg 884 204 start;
#X obj 899 237 delay 3000;
#X msg 911 270 stop;
#X msg 793 278 1;
#X obj 788 303 count;
#X floatatom 796 347 5 0 0 0 - - -;
#X msg 626 358 1;
#X obj 631 389 count;
#X floatatom 638 418 5 0 0 0 - - -;
#X obj 565 164 tabplay~ sample;
#X obj 619 335 sel 0;
#X msg 841 300 -1;
#X obj 650 285 moses 40;
#X msg 734 292 1;
#X obj 729 317 count;
#X floatatom 761 353 5 0 0 0 - - -;
#X msg 695 320 1;
#X obj 690 345 count;
#X floatatom 720 364 5 0 0 0 - - -;
#X msg 660 339 1;
#X obj 665 370 count;
#X floatatom 689 387 5 0 0 0 - - -;
#X obj 544 196 sigmund~ -hop 2000 pitch env;
#X obj 817 395 float;
#X floatatom 809 504 5 0 0 0 - - -;
#X obj 873 335 bng 15 250 50 0 empty empty empty 17 7 0 10 -262144
-1 -1;
#X obj 773 393 float;
#X obj 738 411 float;
#X obj 659 450 float;
#X obj 694 423 float;
#X obj 676 472 expr $f1 + $f2 + $f3 + $f4 + $f5;
#X obj 959 351 t b b;
#X text 855 507 this is always 1 off for some reason?;
#X obj 664 534 /;
#X obj 471 461 bng 15 250 50 0 empty empty empty 17 7 0 10 -262144
-1 -1;
#X floatatom 661 571 5 0 0 0 - - -;
#X obj 713 539 /;
#X obj 757 547 /;
#X obj 796 564 /;
#X obj 837 567 /;
#X floatatom 709 574 5 0 0 0 - - -;
#X floatatom 753 579 5 0 0 0 - - -;
#X floatatom 837 589 5 0 0 0 - - -;
#X floatatom 796 586 5 0 0 0 - - -;
#X obj 560 112 t b b b;
#X obj 575 47 inlet;
#X obj 661 618 outlet;
#X obj 717 622 outlet;
#X obj 767 629 outlet;
#X obj 811 633 outlet;
#X obj 837 608 outlet;
#X obj 919 619 outlet;
#X obj 916 572 bng 15 250 50 0 empty empty empty 17 7 0 10 -262144
-1 -1;
#X obj 975 284 delay 50;
#X obj 607 306 moses 30;
#X obj 682 263 moses 50;
#X obj 704 242 moses 70;
#X connect 0 0 46 0;
#X connect 2 0 13 0;
#X connect 3 0 4 0;
#X connect 3 0 55 0;
#X connect 4 0 33 0;
#X connect 5 0 6 0;
#X connect 6 0 7 0;
#X connect 7 0 25 0;
#X connect 8 0 9 0;
#X connect 9 0 10 0;
#X connect 10 0 30 0;
#X connect 11 0 24 0;
#X connect 12 1 8 0;
#X connect 13 0 6 0;
#X connect 13 0 9 0;
#X connect 13 0 16 0;
#X connect 13 0 19 0;
#X connect 13 0 22 0;
#X connect 14 0 56 0;
#X connect 14 1 18 0;
#X connect 15 0 16 0;
#X connect 16 0 17 0;
#X connect 17 0 28 0;
#X connect 18 0 19 0;
#X connect 19 0 20 0;
#X connect 20 0 29 0;
#X connect 21 0 22 0;
#X connect 22 0 23 0;
#X connect 23 0 31 0;
#X connect 24 1 1 0;
#X connect 24 1 58 0;
#X connect 25 0 32 4;
#X connect 25 0 41 0;
#X connect 26 0 35 1;
#X connect 26 0 36 0;
#X connect 26 0 38 1;
#X connect 26 0 39 1;
#X connect 26 0 40 1;
#X connect 26 0 41 1;
#X connect 27 0 25 0;
#X connect 27 0 28 0;
#X connect 27 0 29 0;
#X connect 27 0 31 0;
#X connect 27 0 30 0;
#X connect 28 0 32 3;
#X connect 28 0 40 0;
#X connect 29 0 32 2;
#X connect 29 0 39 0;
#X connect 30 0 32 0;
#X connect 30 0 35 0;
#X connect 31 0 32 1;
#X connect 31 0 38 0;
#X connect 32 0 26 0;
#X connect 33 0 32 0;
#X connect 33 1 27 0;
#X connect 35 0 37 0;
#X connect 36 0 30 0;
#X connect 36 0 31 0;
#X connect 36 0 29 0;
#X connect 36 0 28 0;
#X connect 36 0 25 0;
#X connect 37 0 48 0;
#X connect 38 0 42 0;
#X connect 39 0 43 0;
#X connect 40 0 45 0;
#X connect 41 0 44 0;
#X connect 42 0 49 0;
#X connect 43 0 50 0;
#X connect 44 0 52 0;
#X connect 45 0 51 0;
#X connect 46 0 3 0;
#X connect 46 1 11 0;
#X connect 46 2 2 0;
#X connect 47 0 0 0;
#X connect 54 0 53 0;
#X connect 55 0 54 0;
#X connect 56 0 12 0;
#X connect 56 1 21 0;
#X connect 57 0 14 0;
#X connect 57 1 15 0;
#X connect 58 0 57 0;
#X connect 58 1 5 0;
