#N canvas 452 273 450 300 10;
#X obj 198 45 inlet;
#X obj 208 211 outlet~;
#X obj 197 88 phasor~;
#X obj 199 114 expr~ $v1 > 0.5;
#X obj 203 153 -~ 0.5;
#X connect 0 0 2 0;
#X connect 2 0 3 0;
#X connect 3 0 4 0;
#X connect 4 0 1 0;
