#N canvas 424 256 571 447 10;
#X obj 244 58 inlet;
#X obj 216 363 outlet~;
#X floatatom 210 98 5 0 0 0 - - -, f 5;
#X obj 270 109 * -1;
#X msg 319 112 0;
#X obj 215 144 phasor~;
#X obj 281 159 phasor~;
#X obj 238 181 *~ 2;
#X obj 217 211 -~ 1;
#X obj 197 250 clip~ 0 1;
#X obj 282 188 *~ 2;
#X obj 276 226 -~ 1;
#X obj 259 262 clip~ 0 1;
#X obj 208 279 +~;
#X obj 305 86 bng 15 250 50 0 empty empty empty 17 7 0 10 -262144 -1
-1;
#X obj 203 321 -~ 0.5;
#X connect 0 0 14 0;
#X connect 0 0 2 0;
#X connect 2 0 3 0;
#X connect 2 0 5 0;
#X connect 3 0 6 0;
#X connect 4 0 6 1;
#X connect 4 0 5 1;
#X connect 5 0 7 0;
#X connect 6 0 10 0;
#X connect 7 0 8 0;
#X connect 8 0 9 0;
#X connect 9 0 13 0;
#X connect 10 0 11 0;
#X connect 11 0 12 0;
#X connect 12 0 13 1;
#X connect 13 0 15 0;
#X connect 14 0 4 0;
#X connect 15 0 1 0;
